<?xml version="1.0" standalone="no"?>
<!DOCTYPE svg PUBLIC "-//W3C//DTD SVG 20010904//EN"
 "http://www.w3.org/TR/2001/REC-SVG-20010904/DTD/svg10.dtd">
<svg version="1.0" xmlns="http://www.w3.org/2000/svg"
 width="700.000000pt" height="700.000000pt" viewBox="0 0 700.000000 700.000000"
 preserveAspectRatio="xMidYMid meet">
<metadata>
Created by potrace 1.14, written by Peter Selinger 2001-2017
</metadata>
<g transform="translate(0.000000,700.000000) scale(0.100000,-0.100000)"
fill="#000000" stroke="none">
<path d="M1053 6559 c-62 -13 -135 -68 -156 -119 -37 -91 -21 -188 44 -251 60
-58 80 -62 344 -63 231 -1 240 -2 242 -21 1 -11 4 -155 7 -320 2 -165 7 -318
11 -340 28 -182 87 -402 137 -515 115 -259 236 -439 422 -626 159 -160 282
-251 475 -354 141 -75 199 -123 235 -194 l30 -57 0 -198 c0 -196 0 -198 -28
-255 -35 -71 -85 -113 -217 -184 -347 -184 -616 -440 -801 -762 -48 -85 -64
-116 -114 -225 -31 -68 -95 -273 -110 -348 -2 -12 -6 -35 -10 -50 -8 -38 -13
-81 -30 -247 -1 -14 -2 -144 -3 -290 l-1 -265 -232 0 c-266 1 -296 -5 -358
-66 -109 -108 -73 -289 69 -352 46 -20 51 -20 2491 -20 2443 -1 2445 0 2491
20 145 65 178 250 64 358 -59 55 -92 61 -352 60 l-233 0 -1 235 c0 346 -4 405
-40 590 -42 217 -122 423 -242 625 -130 217 -301 405 -532 583 -42 33 -168
109 -254 153 -118 62 -192 127 -223 196 -20 44 -22 65 -22 244 0 194 1 197 28
253 35 71 86 114 216 182 108 57 267 160 340 221 146 121 354 357 435 495 131
224 232 484 259 673 10 62 15 97 22 130 3 17 8 165 10 330 3 165 6 309 7 320
2 19 10 20 237 21 129 1 246 4 259 8 105 25 182 166 146 269 -28 81 -89 139
-163 154 -37 7 -4864 10 -4899 2z m3974 -719 c0 -157 -3 -312 -8 -345 -5 -33
-11 -71 -13 -85 -13 -85 -75 -280 -112 -351 l-15 -29 -1382 0 -1383 0 -36 93
c-39 100 -60 172 -77 257 -6 30 -13 69 -17 85 -8 36 -18 630 -11 648 3 9 330
12 1528 12 l1524 0 2 -285z m-1237 -2785 c76 -153 188 -262 365 -356 111 -58
271 -162 325 -209 303 -268 470 -565 534 -950 3 -19 9 -78 12 -130 l6 -95 -28
35 c-144 178 -412 366 -669 468 -147 58 -358 113 -490 127 -73 8 -118 15 -123
19 -3 3 -4 1167 -2 1256 l2 45 14 -65 c8 -36 32 -101 54 -145z m-507 -459 c2
-559 0 -636 -13 -637 -8 0 -31 -2 -50 -4 -31 -4 -65 -9 -195 -31 -93 -15 -272
-70 -393 -120 -246 -101 -492 -277 -635 -454 l-29 -35 6 101 c3 55 7 107 10
115 3 8 7 32 10 54 3 22 14 74 26 115 11 41 22 82 24 90 33 129 189 407 291
516 140 150 210 212 329 289 45 29 115 69 156 90 194 97 327 227 400 388 15
34 33 86 41 114 7 29 14 51 17 49 2 -2 4 -290 5 -640z"/>
</g>
</svg>
